<?xml version="1.0" encoding="utf-8"?>
<!-- Generator: Adobe Illustrator 16.0.0, SVG Export Plug-In . SVG Version: 6.00 Build 0)  -->
<!DOCTYPE svg PUBLIC "-//W3C//DTD SVG 1.1//EN" "http://www.w3.org/Graphics/SVG/1.1/DTD/svg11.dtd">
<svg version="1.1" id="Layer_1" xmlns="http://www.w3.org/2000/svg" xmlns:xlink="http://www.w3.org/1999/xlink" x="0px" y="0px"
	 width="864px" height="270px" viewBox="0 0 864 270" enable-background="new 0 0 864 270" xml:space="preserve">
<g>
	<g>
		<path fill="#DB869E" d="M45.945,34.827c3.331-8.753,11.267-10.925,19.814-11.586c6.258-0.484,12.614,0.709,15.714,6.638
			c3.678,7.034,3.711,16.86,3.866,24.544c0.225,11.165-1.21,22.342-2.924,33.349c-3.428,22.022-7.011,44.398-13.455,65.753
			c-6.785,22.483-15.753,44.363-19.308,67.701c0.086-0.564,4.251-0.539,4.347-1.165c3.827-25.125,13.819-48.66,20.86-72.947
			c3.451-11.903,5.375-24.012,7.592-36.179c2.225-12.211,4.562-24.399,6.027-36.731c1.391-11.708,1.821-23.608,0.027-35.294
			c-0.996-6.489-2.429-13.545-9.296-15.991c-6.35-2.262-14.489-0.645-20.815,1.032c-7.232,1.917-13.913,4.466-16.795,12.04
			C41.901,35.197,45.624,35.673,45.945,34.827L45.945,34.827z"/>
	</g>
</g>
<g>
	<g>
		<path fill="#DB869E" d="M198.294,47.579c-2.167-5.088-5.699-9.586-11.728-9.061c-4.14,0.361-8.639,2.099-12.137,4.242
			c-12.686,7.773-22.007,21.991-30.143,34.081c-9.572,14.224-17.638,29.581-31.53,40.262c-8.5,6.536-19.919,10.162-30.271,12.356
			c-7.163,1.519-21.48,3.808-23.366-6.688c-0.577-3.211,3.799-7.053,6.64-7.584c6.345-1.188,13.108-0.405,19.302,1.17
			c10.437,2.654,18.813,9.726,25.304,18.044c13.316,17.063,18.014,39.427,32.032,55.932c25.76,30.329,68.942,9.291,96.836-5.841
			c-1.274,0.691-3.058,0.466-4.347,1.165c-18.711,10.15-39.434,21.602-61.457,18.582c-23.965-3.287-34.362-25.399-43.713-44.841
			c-10.21-21.229-22.65-42.814-48.384-45.668c-7.226-0.801-15.975,0.233-22.449,3.931c-4.096,2.339-5.229,6.371-2.246,10.065
			c2.925,3.624,7.248,4.331,11.572,4.234c13.147-0.294,27.629-5.372,39.597-10.509c16.91-7.259,27-24.157,36.44-39.051
			c7.649-12.07,15.979-24.089,26.241-34.103c2.189-2.136,4.532-4.112,7.033-5.873c1.186-0.834,2.44-1.561,3.729-2.221
			c0.589-0.302,1.202-0.551,1.815-0.797c-2.319,0.93-1.293,0.317-0.281,0.229c5.698-0.497,9.187,4.468,11.164,9.11
			C194.043,48.968,198.225,47.416,198.294,47.579L198.294,47.579z"/>
	</g>
</g>
<g>
	<g>
		<path fill="#DB869E" d="M288.819,121.997c1.442,4.515,5.086,8.113,8.233,11.512c3.374,3.644,6.38,8.068,10.032,11.378
			c6.081,5.51,14.908,4.327,22.094,2.356c8.214-2.252,11.566-7.721,13.371-15.61c2.054-8.978,2.452-18.968,0.872-28.048
			c-1.078-6.196-4.488-13.002-11.487-11.148c-6.999,1.855-10.438,7.579-13.882,13.634c-12.885,22.652-24.243,46.655-30.505,72.041
			c-3.616,14.657-7.329,29.359-9.07,44.384c-0.622,5.367-1.87,13.017,1.082,17.948c2.051,3.426,8.417,1.183,11.208-0.199
			c6.538-3.238,8.727-14.369,10.303-20.692c2.877-11.54,5.064-23.194,6.249-35.032c1.221-12.196,1.492-24.492,2.217-36.723
			c0.868-14.618-1.661-29.228-0.155-43.837c0.167-1.624,0.457-3.229,0.753-4.832c-1.449,0.388-2.898,0.777-4.347,1.165
			c-1.379,9.99-4.501,19.692-6.861,29.478c-2.344,9.717-9.801,17.543-17.939,22.862c-15.064,9.846-42.121,9.962-49.371-9.709
			c-4.422-11.999-2.152-33.438,10.033-40.52c1.139-0.662,2.489-0.487-0.66-0.024c0.652-0.096,1.315-0.054,1.969-0.013
			c1.46,0.092,2.852,0.657,4.151,1.284c3.174,1.531,5.609,4.076,6.404,7.544c1.596,6.965-4.509,14.501-8.629,19.374
			c-5.194,6.143-11.405,11.56-17.93,16.246c-7.227,5.189-16.111,7.493-24.833,8.612c-9.304,1.194-19.789,0.648-27.424-5.382
			c-6.855-5.414-7.155-14.942-6.378-22.919c0.844-8.672,3.823-18.221,10.151-24.473c2.402-2.374,5.356-3.836,8.659-2.455
			c2.945,1.231,2.403,5.414,1.869,7.837c-1.308,5.935-6.758,14.971-12.345,16.257c-9.132,2.103-20.116-0.344-27.048-6.712
			c-2.054-1.887-3.437-4.323-4.331-6.935c-0.044-0.128-4.325,1.229-4.347,1.165c5.443,15.904,26.613,16.138,39.786,11.289
			c6.892-2.537,11.297-10.173,12.808-17.034c1.666-7.563-4.426-8.133-10.104-6.611c-7.26,1.945-11.583,5.682-14.98,12.543
			c-4.023,8.123-5.515,18.016-4.416,26.979c2.539,20.698,28.488,19.577,43.661,15.793c6.503-1.622,12.955-3.44,19.072-6.219
			c5.905-2.682,11.3-7.975,15.958-12.342c8.225-7.714,25.6-28.108,6.635-34.589c-3.766-1.287-9.285,0.349-12.624,2.289
			c-5.906,3.432-8.694,11.263-10.179,17.502c-1.827,7.673-1.703,16.094,1.036,23.527c3.07,8.329,10.637,12.557,18.907,14.57
			c14.161,3.447,31.619-2.263,42.882-10.893c7.182-5.504,12.605-13.313,14.395-22.233c1.841-9.179,5.083-17.93,6.369-27.25
			c-0.079,0.569-4.229,0.529-4.347,1.165c-2.76,14.897-0.313,30.141-0.481,45.163c-0.143,12.847-1.074,25.928-2.194,38.728
			c-1.082,12.361-3.461,24.489-6.39,36.532c-1.667,6.852-4.098,18.517-11.65,21.271c1.423-0.383,2.845-0.767,4.268-1.15
			c-10.486,2.469-6.811-17.415-6.15-22.488c1.604-12.314,4.489-24.471,7.479-36.51c4.369-17.595,10.361-34.469,18.124-50.867
			c3.891-8.219,8.269-16.202,12.578-24.207c2.774-5.153,6.316-12.519,12.163-14.736c-1.349,0.365-2.698,0.73-4.047,1.096
			c7.949-1.966,9.926,12.528,10.287,17.582c0.669,9.383-0.02,19.917-3.586,28.709c-3.992,9.838-15.989,10.201-23.916,4.955
			c-3.846-2.545-6.781-7.664-9.943-11.033c-3.445-3.67-7.593-7.59-9.164-12.507C293.134,120.732,288.83,122.032,288.819,121.997
			L288.819,121.997z"/>
	</g>
</g>
<g>
	<g>
		<path fill="#DB869E" d="M403.256,78.661c-1.735,2.926,0.665,4.066,3.352,4.471c0.481,0.072,4.202-0.805,4.347-1.165
			c1.666-4.13-1.809-6.758-5.127-8.511c-0.576-0.304-4.093,1.566-4.347,1.165c2.757,4.355,6.353,3.168,10.516,2.008
			c4.61-1.285,7.948-5.928,7.899-10.677c0.003,0.34-4.351,0.759-4.347,1.165c0.046,4.55-2.991,8.927-7.267,10.491
			c0.916-0.252,1.831-0.505,2.746-0.758c-0.206,0.055-0.411,0.109-0.616,0.164c0.534-0.136,1.067-0.271,1.601-0.407
			c-2.79,0.454-4.721-0.837-6.186-3.151c-1.449,0.388-2.898,0.777-4.347,1.165c3.319,1.753,6.793,4.38,5.127,8.511
			c1.449-0.388,2.898-0.777,4.347-1.165c-2.687-0.404-5.087-1.544-3.352-4.471C407.067,78.398,403.815,77.718,403.256,78.661
			L403.256,78.661z"/>
	</g>
</g>
<g>
	<g>
		<path fill="#DB869E" d="M468.502,133.505c3.266,5.854,2.117,17.81-4.938,20.684c1.423-0.383,2.846-0.767,4.268-1.15
			c-3.75,0.901-6.489-2.769-7.803-5.805c-1.883-4.351-1.086-10.09-0.584-14.636c0.822-7.448,2.137-14.103,0.556-21.6
			c-1.223-5.795-4.9-10.6-11.332-8.945c-2.305,0.593-4.602,1.154-6.801,2.071c-4.107,1.713-6.085,5.742-7.498,9.707
			c-2.716,7.621-2.843,15.912-4.535,23.769c-0.662,3.069-1.323,6.139-1.984,9.208c-0.804,3.733-6.269,8.582-10.048,8.778
			c-10.854,0.562-13.228-9.811-14.044-18.096c-1.238-12.555,2.242-25.696,5.25-37.777c-1.449,0.388-2.898,0.777-4.347,1.165
			c0.86,12.492-2.207,25.822-8.83,36.476c-2.753,4.428-7.979,10.464-13.548,10.555c-6.306,0.103-10.483-5.522-12.841-10.642
			c-0.12-0.26-4.255,1.365-4.347,1.165c2.75,5.969,7.918,11.914,15.245,10.482c4.664-0.911,8.961-2.298,12.892-5.062
			c12.671-8.909,16.768-29.712,15.775-44.14c0.025,0.373-4.223,0.666-4.347,1.165c-3.655,14.681-7.117,29.938-4.298,45.067
			c1.03,5.527,4.433,8.453,9.61,10.195c3.729,1.254,7.381,0.067,10.995-0.967c4.425-1.267,10.25-4.98,11.296-9.836
			c0.816-3.789,1.712-7.569,2.424-11.379c1.106-5.92,1.62-11.915,3.015-17.787c1.037-4.362,3.745-12.172,8.343-13.378
			c-0.361,0.09-0.722,0.18-1.082,0.27c18.261-3.24,9.2,32.807,9.811,41.02c0.307,4.126,2.415,9.073,6.769,10.248
			c1.757,0.475,4.418-0.74,6.076-1.214c7.493-2.146,8.344-15.195,5.232-20.775C472.654,131.992,468.665,133.796,468.502,133.505
			L468.502,133.505z"/>
	</g>
</g>
<g>
	<g>
		<path fill="#DB869E" d="M492.779,23.815c18.605,36.598,15.3,79.149,19.377,118.828c1.656,16.112,3.574,32.209,3.739,48.427
			c0.13,12.793,0.124,30.098-9.374,40.02c1.449-0.388,2.898-0.777,4.348-1.165c-9.383-22.576-8.68-48.613-6.01-72.461
			c2.28-20.37,7.352-40.106,12.873-59.79c4.157-14.818,9.156-29.839,16.986-43.16c3.196-5.437,7.25-11.099,12.994-14.043
			c0.961-0.493,2.272-0.416-0.289-0.055c0.592-0.083,1.192-0.07,1.788-0.056c1.26,0.03,2.486,0.386,3.66,0.814
			c3.099,1.131,5.713,3.57,7.811,6.038c7.359,8.659,9.477,21.64,11.033,32.497c2.099,14.633,2.379,29.525,2.317,44.283
			c-0.054,12.967-0.619,25.92-0.97,38.88c-0.492,18.161,1.498,36.572-2.411,54.477c1.448-0.388,2.897-0.777,4.346-1.165
			c-2.441-24.092-3.418-48.364-2.025-72.555c1.381-23.995,5.135-48.713,15.541-70.594c5.018-10.55,23.337-40.98,34.887-22.086
			c4.316,7.062,4.7,16.657,5.046,24.676c0.372,8.625-0.08,17.26-0.416,25.878c-0.735,18.818-2.339,37.325-4.368,56.056
			c-1.16,10.714-2.089,21.453-2.24,32.233c-0.123,8.807,0.051,17.926,2.812,26.363c3.354,10.251,11.519,23.706,23.248,25.352
			c11.557,1.622,19.016-9.133,22.565-18.452c-0.304,0.795-4.024,0.318-4.348,1.165c-1.906,5.006-4.226,9.823-8.09,13.617
			c-3.03,2.975-4.801,3.111-8.959,1.767c-7.83-2.531-13.433-10.646-17.068-17.549c-5.205-9.886-5.768-20.697-5.821-31.673
			c-0.073-14.992,1.779-29.956,3.451-44.829c2.438-21.679,3.776-43.55,3.706-65.38c-0.035-10.815-0.143-40.53-18.229-36.013
			c-11.484,2.868-19.952,10.745-25.771,20.974c-8.001,14.063-12.985,29.232-16.109,45.069c-6.915,35.046-5.742,71.779-2.156,107.146
			c-0.034-0.332,4.244-0.699,4.346-1.165c3.129-14.33,2.462-29.042,2.307-43.607c-0.082-7.737,0.239-15.471,0.492-23.203
			c0.657-20.053,1.124-40.175-0.55-60.193c-1.257-15.033-3.034-35.146-14.987-45.978c-8.385-7.598-19.971-2.773-26.479,4.75
			c-8.136,9.402-12.835,21.998-16.934,33.554c-3.498,9.864-6.056,19.972-8.952,30.013c-5.76,19.968-9.355,40.66-10.626,61.4
			c-1.188,19.403-0.295,40.005,7.253,58.169c0.001,0,4.069-0.874,4.348-1.165c9.274-9.688,9.346-26.264,9.378-38.772
			c0.043-16.618-2.027-33.172-3.744-49.674c-4.127-39.69-0.76-82.208-19.376-118.828C496.971,22.344,492.905,24.062,492.779,23.815
			L492.779,23.815z"/>
	</g>
</g>
<g>
	<g>
		<path fill="#DB869E" d="M745.537,173.508c-0.83,2.166-1.972,3.466-4.138,4.333c1.35-0.365,2.698-0.73,4.047-1.096
			c-4.854,1.188-9.277-1.503-12.256-5.131c-3.661-4.458-2.188-13.143-1.915-18.371c0.661-12.64,3.356-25.068,3.521-37.76
			c0.081-6.224-0.163-16.55-7.627-18.517c-4.954-1.306-13.124,2.315-16.742,5.281c-7.497,6.146-9.139,17.948-10.988,26.824
			c-1.503,7.217-3.554,14.199-5.648,21.254c-1.063,3.58-2.126,7.16-3.188,10.74c-1.138,3.831-2.698,6.152-5.391,9.345
			c-1.753,2.079-3.79,3.88-6.029,5.413c-0.368,0.252-3.171,1.245-1.082,0.924c-0.816,0.125-1.639,0.02-2.447-0.094
			c-4.026-0.563-6.544-4.595-8.076-7.938c-4.438-9.691-2.652-21.293-3.031-31.616c-0.414-11.315-1.803-23.681,2.119-34.554
			c-1.449,0.388-2.898,0.777-4.348,1.165c3.256,4.967,2.507,12.394,2.036,17.982c-0.782,9.27-2.942,18.468-5.779,27.309
			c-2.43,7.573-5.529,15.329-10.423,21.674c-0.897,1.165-1.919,2.224-3.028,3.187c-1.522,1.32-4.332,1.658-0.569,1.161
			c-2.715,0.358-5.047-1.469-6.748-3.352c-0.479-0.529-3.909,1.649-4.348,1.165c3.884,4.293,8.392,3.611,13.346,1.573
			c7.015-2.886,10.898-12.933,13.504-19.34c3.903-9.595,6.454-19.836,7.888-30.083c0.932-6.662,2.424-16.407-1.53-22.442
			c-0.044-0.066-4.258,0.918-4.348,1.165c-4.081,11.315-2.494,24.277-2.063,36.046c0.403,11.005-1.405,22.985,4.436,32.938
			c3.599,6.132,9.014,5.467,14.853,3.796c7.303-2.091,13.318-9.552,15.407-16.589c1.757-5.919,3.515-11.839,5.272-17.759
			c2.93-9.871,4.167-20.226,7.592-29.946c2.27-6.443,9.52-18.264,17.742-12.855c5.926,3.898,5.043,15.047,4.79,21.053
			c-0.35,8.282-1.5,16.472-2.521,24.689c-0.973,7.83-2.714,17.809-0.183,25.492c2.808,8.52,18.795,10.762,22.244,1.768
			C749.579,173.14,745.863,172.66,745.537,173.508L745.537,173.508z"/>
	</g>
</g>
<g>
	<g>
		<path fill="#DB869E" d="M829.43,160.085c-2.265,1.907-4.497,3.38-7.275,4.422c0.915-0.252,1.83-0.505,2.745-0.758
			c-0.474,0.125-0.947,0.251-1.421,0.376c0.534-0.135,1.067-0.271,1.602-0.407c-16.763,2.645-27.593-18.558-32.14-31.474
			c-4.089-11.616-6.179-24.136-7.511-36.362c-1.118-10.271-1.604-20.679-1.171-31.003c0.243-5.798,0.143-19.44,7.093-21.972
			c-1.35,0.366-2.698,0.731-4.048,1.096c16.095-4.068,8.35,72.439,7.108,80.874c-1.929,13.099-6.246,28.207-15.236,38.178
			c-1.219,1.352-2.641,2.483-4.162,3.471c-0.727,0.471-1.52,0.817-2.313,1.156c2.115-0.904,0.046-0.285-0.759-0.284
			c-4.216,0.003-8.654-2.243-11.254-5.49c-5.667-7.079-4.482-19.156-3.775-27.527c0.631-7.466,0.838-16.657,5.371-22.92
			c4.571-6.317,17.923-5.103,20.274,2.985c0.018,0.063,4.347-1.163,4.346-1.165c-2.556-8.795-14.058-7.185-21.04-5.293
			c-8.258,2.237-10.85,8.652-12.008,16.617c-1.986,13.658-6.809,43.972,14.636,43.957c15.086-0.011,22.07-15.88,26.131-27.999
			c4.247-12.674,5.521-25.877,6.455-39.156c1.136-16.128,2.276-33.671-1.642-49.521c-0.879-3.554-2.646-9.355-7.225-9.15
			c-3.673,0.165-7.203,1.805-8.938,5.052c-3.146,5.886-3.212,13.726-3.436,20.214c-0.274,7.946,0.111,15.925,0.755,23.846
			c1.482,18.245,4.632,37.538,13.319,53.797c4.591,8.592,12.476,17.973,22.63,19.468c5.808,0.855,13.066-2.684,17.235-6.194
			C832.749,159.786,830.479,159.202,829.43,160.085L829.43,160.085z"/>
	</g>
</g>
<g>
	<g>
		<path fill="#DB869E" d="M667.014,71.496c2.694,0.042,8.074,1.217,7.98,4.851c-0.017,0.645-0.41,1.192-0.855,1.621
			c-0.257,0.247-0.575,0.426-0.885,0.598c-0.185,0.096-0.374,0.182-0.567,0.258c0.957-0.244,1.914-0.487,2.871-0.73
			c-0.399,0.085-0.802,0.152-1.208,0.201c-0.994,0.136-1.018,0.104-1.135-0.887c-0.092-0.771,0.094-1.544,0.322-2.273
			c0.479-1.524,1.583-2.872,2.521-4.132c-0.224,0.301-1.826,0.466-2.179,0.561c-0.385,0.104-1.914,0.264-2.167,0.604
			c-1.064,1.428-2.121,2.858-2.661,4.575c-0.237,0.753-0.218,1.54-0.126,2.312c0.092,0.773,0.461,0.471,1.078,0.405
			c0.319-0.034,0.645-0.085,0.959-0.148c1.613-0.326,3.201-0.796,4.784-1.238c0.988-0.276,1.938-0.603,2.738-1.269
			c1.44-1.199,0.804-2.983-0.316-4.123c-1.722-1.751-4.452-2.312-6.808-2.349C669.91,70.308,668.446,71.518,667.014,71.496
			L667.014,71.496z"/>
	</g>
</g>
</svg>
